<svg width="28" height="28" viewBox="0 0 28 28" fill="none" xmlns="http://www.w3.org/2000/svg">
<path d="M16.7416 2.33301H11.2582C10.0449 2.33301 9.05322 3.31301 9.05322 4.52634V5.62301C9.05322 6.83634 10.0332 7.81634 11.2466 7.81634H16.7416C17.9549 7.81634 18.9349 6.83634 18.9349 5.62301V4.52634C18.9466 3.31301 17.9549 2.33301 16.7416 2.33301Z" fill="white"/>
<path d="M20.1134 5.62307C20.1134 7.47807 18.5967 8.99473 16.7417 8.99473H11.2584C9.40338 8.99473 7.88671 7.47807 7.88671 5.62307C7.88671 4.96973 7.18671 4.5614 6.60338 4.86473C4.95838 5.73973 3.83838 7.47807 3.83838 9.47306V20.4514C3.83838 23.3214 6.18338 25.6664 9.05338 25.6664H18.9467C21.8167 25.6664 24.1617 23.3214 24.1617 20.4514V9.47306C24.1617 7.47807 23.0417 5.73973 21.3967 4.86473C20.8134 4.5614 20.1134 4.96973 20.1134 5.62307ZM14.4434 19.7747H9.33338C8.85505 19.7747 8.45838 19.3781 8.45838 18.8997C8.45838 18.4214 8.85505 18.0247 9.33338 18.0247H14.4434C14.9217 18.0247 15.3184 18.4214 15.3184 18.8997C15.3184 19.3781 14.9217 19.7747 14.4434 19.7747ZM17.5 15.1081H9.33338C8.85505 15.1081 8.45838 14.7114 8.45838 14.2331C8.45838 13.7547 8.85505 13.3581 9.33338 13.3581H17.5C17.9784 13.3581 18.375 13.7547 18.375 14.2331C18.375 14.7114 17.9784 15.1081 17.5 15.1081Z" fill="white"/>
</svg>
