<svg width="18" height="19" viewBox="0 0 18 19" fill="none" xmlns="http://www.w3.org/2000/svg">
<path d="M6.8741 1.90527C5.0079 1.90527 3.49072 3.52002 3.49072 5.50623C3.49072 7.45453 4.92243 9.03137 6.78863 9.0996C6.84561 9.09202 6.90259 9.09202 6.94533 9.0996C6.95958 9.0996 6.9667 9.0996 6.98095 9.0996C6.98807 9.0996 6.98807 9.0996 6.99519 9.0996C8.81866 9.03137 10.2504 7.45453 10.2575 5.50623C10.2575 3.52002 8.7403 1.90527 6.8741 1.90527Z" fill="white"/>
<path d="M10.4926 11.1161C8.50529 9.70608 5.26437 9.70608 3.26283 11.1161C2.35822 11.7605 1.85962 12.6323 1.85962 13.5648C1.85962 14.4972 2.35822 15.3615 3.25571 15.9983C4.25291 16.7109 5.56353 17.0672 6.87414 17.0672C8.18476 17.0672 9.49537 16.7109 10.4926 15.9983C11.3901 15.3539 11.8887 14.4897 11.8887 13.5496C11.8815 12.6172 11.3901 11.7529 10.4926 11.1161Z" fill="white"/>
<path d="M14.7022 5.95304C14.8162 7.42375 13.8332 8.71251 12.4727 8.88687C12.4656 8.88687 12.4656 8.88687 12.4585 8.88687H12.4371C12.3944 8.88687 12.3516 8.88687 12.316 8.90203C11.6251 8.93994 10.9912 8.70493 10.5139 8.27281C11.2476 7.57537 11.6678 6.52919 11.5824 5.39205C11.5325 4.77799 11.3331 4.217 11.0339 3.7394C11.3046 3.59537 11.618 3.50439 11.9385 3.47407C13.3346 3.34519 14.5811 4.45201 14.7022 5.95304Z" fill="white"/>
<path d="M16.1268 12.9652C16.0698 13.7005 15.6282 14.3373 14.8874 14.7694C14.1751 15.1864 13.2776 15.3835 12.3873 15.3607C12.9001 14.868 13.1993 14.2539 13.2563 13.602C13.3275 12.6619 12.9072 11.7598 12.0667 11.0396C11.5895 10.6378 11.0339 10.3194 10.4285 10.0844C12.0026 9.59922 13.9828 9.92521 15.2008 10.9714C15.8561 11.5324 16.1909 12.2374 16.1268 12.9652Z" fill="white"/>
</svg>
